<?xml version="1.0" encoding="UTF-8" standalone="no"?>
<svg
   xmlns:osb="http://www.openswatchbook.org/uri/2009/osb"
   xmlns:dc="http://purl.org/dc/elements/1.1/"
   xmlns:cc="http://creativecommons.org/ns#"
   xmlns:rdf="http://www.w3.org/1999/02/22-rdf-syntax-ns#"
   xmlns:svg="http://www.w3.org/2000/svg"
   xmlns="http://www.w3.org/2000/svg"
   id="svg8"
   version="1.1"
   viewBox="0 0 33.866666 33.866668"
   height="128"
   width="128">
  <defs
     id="defs2">
    <linearGradient
       osb:paint="solid"
       id="linearGradient4580">
      <stop
         id="stop4578"
         offset="0"
         style="stop-color:#000000;stop-opacity:1;" />
    </linearGradient>
  </defs>
  <metadata
     id="metadata5">
    <rdf:RDF>
      <cc:Work
         rdf:about="">
        <dc:format>image/svg+xml</dc:format>
        <dc:type
           rdf:resource="http://purl.org/dc/dcmitype/StillImage" />
        <dc:title></dc:title>
      </cc:Work>
    </rdf:RDF>
  </metadata>
  <g
     transform="translate(0,-263.13332)"
     id="layer1">
    <g
       id="_x36_2_x2C__Ax_x2C__Log_x2C__Timber_x2C__Wood"
       transform="matrix(0.07536829,0,0,0.07536829,-0.90264336,260.67407)">
      <g
         transform="matrix(0.97740728,0,0,0.97740728,-54.445181,5.6327897)"
         id="g16">
        <path
           id="path2"
           d="m 327.57963,284.53702 c -0.206,0.197 -0.415,0.393 -0.627,0.588 -0.252,0.23 -0.508,0.461 -0.767,0.691 -0.221,0.195 -0.442,0.389 -0.668,0.582 -0.266,0.229 -0.536,0.455 -0.809,0.682 -0.232,0.191 -0.466,0.385 -0.704,0.574 -0.28,0.227 -0.565,0.449 -0.854,0.674 -0.243,0.188 -0.487,0.377 -0.736,0.564 -0.296,0.223 -0.599,0.443 -0.902,0.666 -0.254,0.184 -0.508,0.369 -0.767,0.553 -0.312,0.221 -0.63,0.439 -0.949,0.658 -0.265,0.182 -0.529,0.363 -0.799,0.543 -0.328,0.219 -0.663,0.436 -0.998,0.652 -0.274,0.176 -0.547,0.354 -0.826,0.529 -0.345,0.217 -0.698,0.432 -1.051,0.646 -0.283,0.172 -0.563,0.346 -0.852,0.516 -0.361,0.215 -0.73,0.428 -1.1,0.639 -0.293,0.17 -0.583,0.338 -0.881,0.506 -0.381,0.213 -0.771,0.424 -1.16,0.637 -0.297,0.16 -0.59,0.322 -0.892,0.482 -0.404,0.215 -0.819,0.428 -1.232,0.639 -0.299,0.154 -0.594,0.311 -0.897,0.463 -0.432,0.217 -0.873,0.43 -1.313,0.645 -0.298,0.145 -0.59,0.291 -0.891,0.434 -0.457,0.219 -0.926,0.432 -1.392,0.646 -0.299,0.139 -0.592,0.277 -0.894,0.414 -0.498,0.225 -1.009,0.445 -1.518,0.668 -0.279,0.121 -0.552,0.244 -0.834,0.365 -0.569,0.244 -1.151,0.482 -1.733,0.723 -0.234,0.098 -0.462,0.195 -0.698,0.291 -0.822,0.334 -1.656,0.664 -2.503,0.988 -25.112,9.658 -58.396,14.979 -93.719,14.979 -35.323,0 -68.606,-5.32 -93.719,-14.979 -0.846,-0.324 -1.68,-0.654 -2.502,-0.988 -0.247,-0.1 -0.485,-0.203 -0.729,-0.303 -0.571,-0.236 -1.142,-0.471 -1.701,-0.711 -0.289,-0.123 -0.568,-0.25 -0.854,-0.373 -0.502,-0.221 -1.007,-0.439 -1.499,-0.66 -0.305,-0.139 -0.601,-0.279 -0.902,-0.418 -0.462,-0.213 -0.927,-0.426 -1.38,-0.641 -0.306,-0.146 -0.603998,-0.295 -0.904998,-0.441 -0.436,-0.213 -0.873,-0.424 -1.3,-0.639 -0.307,-0.154 -0.605,-0.311 -0.907,-0.467 -0.41,-0.209 -0.821,-0.42 -1.223,-0.633 -0.303,-0.162 -0.598,-0.324 -0.896,-0.486 -0.388,-0.211 -0.777,-0.422 -1.156,-0.635 -0.298,-0.168 -0.588,-0.336 -0.881,-0.506 -0.369002,-0.211 -0.739002,-0.424 -1.100002,-0.639 -0.288,-0.17 -0.568,-0.342 -0.851,-0.516 -0.354,-0.215 -0.707,-0.43 -1.053,-0.646 -0.279,-0.176 -0.55,-0.352 -0.824,-0.529 -0.336,-0.217 -0.671,-0.434 -1,-0.652 -0.271,-0.18 -0.535,-0.361 -0.8,-0.543 -0.318,-0.219 -0.636,-0.438 -0.947,-0.656 -0.261,-0.186 -0.516,-0.371 -0.771,-0.557 -0.302,-0.221 -0.604,-0.441 -0.898,-0.664 -0.25,-0.188 -0.495,-0.377 -0.74,-0.566 -0.287,-0.223 -0.571,-0.445 -0.851,-0.67 -0.238,-0.191 -0.473,-0.385 -0.706,-0.578 -0.272,-0.225 -0.542,-0.451 -0.806,-0.678 -0.227,-0.195 -0.45,-0.391 -0.671,-0.586 -0.257,-0.229 -0.512,-0.457 -0.761,-0.688 -0.214,-0.197 -0.426,-0.395 -0.634,-0.594 -0.243,-0.23 -0.682,-0.463 -0.917,-0.695 -0.102,-0.101 -0.512,-0.2 -0.512,-0.304 v 176.324 c 0,9.549 8.166,17.149 17.714002,17.149 H 311.30063 c 9.548,0 16.917,-7.6 16.917,-17.148 v -31.023 -105.985 -39.316 c 0,0.102 -0.009,0.199 -0.11,0.301 -0.239,0.234 -0.282,0.468 -0.528,0.702 z m -209.362,147.637 c 0,2.762 -2.239,5 -5,5 -2.761,0 -5,-2.238 -5,-5 v -90 c 0,-2.762 2.239,-5 5,-5 2.761,0 5,2.238 5,5 z m 59,10 c 0,2.762 -2.239,5 -5,5 -2.761,0 -5,-2.238 -5,-5 v -50 c 0,-2.762 2.239,-5 5,-5 2.761,0 5,2.238 5,5 z m 51,-30 c 0,2.762 -2.239,5 -5,5 -2.761,0 -5,-2.238 -5,-5 v -30 c 0,-2.762 2.239,-5 5,-5 2.761,0 5,2.238 5,5 z m -1.072,-56.461 c -0.93,0.93 -2.21,1.461 -3.53,1.461 -1.32,0 -2.6,-0.531 -3.53,-1.461 -0.94,-0.939 -1.47,-2.221 -1.47,-3.539 0,-1.32 0.53,-2.611 1.47,-3.541 0.92,-0.93 2.21,-1.459 3.53,-1.459 1.32,0 2.61,0.529 3.53,1.459 0.94,0.93 1.47,2.221 1.47,3.541 0,1.318 -0.53,2.6 -1.47,3.539 z m 40.01,89.99 c -0.94,0.939 -2.221,1.471 -3.54,1.471 -1.32,0 -2.61,-0.531 -3.54,-1.471 -0.93,-0.93 -1.46,-2.221 -1.46,-3.529 0,-1.32 0.53,-2.602 1.46,-3.541 0.93,-0.93 2.22,-1.459 3.54,-1.459 1.319,0 2.6,0.529 3.54,1.459 0.93,0.939 1.46,2.221 1.46,3.541 0,1.309 -0.53,2.6 -1.46,3.529 z m 1.062,-33.529 c 0,2.762 -2.238,5 -5,5 -2.762,0 -5,-2.238 -5,-5 v -60 c 0,-2.762 2.238,-5 5,-5 2.762,0 5,2.238 5,5 z" />
        <path
           id="path4"
           d="m 285.74763,228.66602 -107.269,39.155 c -0.247,0.09 -0.5,0.152 -0.754,0.203 -0.06,0.012 -0.119,0.021 -0.179,0.031 -0.25,0.041 -0.502,0.064 -0.753,0.066 -0.009,0 -0.018,0.002 -0.027,0.002 -0.045,0 -0.091,-0.008 -0.136,-0.008 -0.153,-0.006 -0.305,-0.014 -0.457,-0.031 -0.073,-0.01 -0.146,-0.021 -0.219,-0.035 -0.136,-0.021 -0.271,-0.049 -0.404,-0.082 -0.073,-0.018 -0.146,-0.037 -0.219,-0.059 -0.139,-0.041 -0.275,-0.092 -0.41,-0.145 -0.061,-0.025 -0.123,-0.047 -0.183,-0.072 -0.193,-0.086 -0.382,-0.182 -0.564,-0.291 -1.297,-0.787 -2.167,-2.119 -2.366,-3.623 l -5.869,-44.434 c -24.686,2.927 -46.791,8.763 -62.654,16.58 -15.907,7.838 -24.668,17.161 -24.668,26.25 0,10.979 12.71,22.164 34.871,30.688 23.995,9.229 56.003,14.313 90.129,14.313 34.126,0 66.134,-5.084 90.129,-14.313 22.161,-8.523 34.871,-19.709 34.871,-30.688 -10e-4,-12.336 -15.988,-24.805 -42.869,-33.507 z" />
        <polygon
           transform="translate(-10.78237,2.0060224)"
           style="fill:#591270;fill-opacity:1"
           id="polygon6"
           points="230.497,101.728 164.741,125.73 174.35,152.054 176.742,158.608 176.742,158.609 178.457,163.305 244.213,139.303 " />
        <rect
           style="stroke-width:1.00002635"
           id="rect8"
           y="-90.821434"
           x="182.7865"
           width="20.000528"
           transform="rotate(69.946895)"
           height="20.000528" />
        <polygon
           transform="translate(-10.78237,2.0060224)"
           style="fill:#591270;fill-opacity:1"
           id="polygon10"
           points="186,211.174 186,211.178 191.69,254.284 292.754,217.412 248.622,148.357 180.935,173.039 " />
        <polygon
           transform="translate(-10.78237,2.0060224)"
           id="polygon14"
           points="243.232,107.452 250.266,126.721 422.602,73.9 409.071,36.833 " />
      </g>
      <text
         id="text3739"
         y="229.64955"
         x="265.54102"
         style="font-style:normal;font-weight:normal;font-size:140.42156982px;line-height:1.25;font-family:sans-serif;letter-spacing:0px;word-spacing:0px;fill:#000000;fill-opacity:1;stroke:none;stroke-width:3.51053929"
         xml:space="preserve"><tspan
           style="font-style:normal;font-variant:normal;font-weight:normal;font-stretch:normal;font-family:monospace;-inkscape-font-specification:monospace;stroke-width:3.51053929"
           y="353.88974"
           x="265.54102"
           id="tspan3737" /></text>
      <path
         id="path4558"
         d="m 107.74445,220.02025 c -4.15977,-31.5722 -5.32428,-42.75243 -4.50566,-43.25836 1.89337,-1.17017 70.17279,-25.86904 70.49897,-25.50176 1.97496,2.22378 45.82616,72.04098 45.47101,72.39614 -0.32621,0.32621 -105.41639,38.99343 -105.83749,38.9422 -0.01,-9.9e-4 -2.54157,-19.16135 -5.62683,-42.57822 z"
         style="fill:#591270;fill-opacity:0;stroke-width:0.94461834" />
      <text
         id="text4564"
         y="156.61676"
         x="270.40433"
         style="font-style:normal;font-weight:normal;font-size:140.42156982px;line-height:1.25;font-family:sans-serif;letter-spacing:0px;word-spacing:0px;fill:#000000;fill-opacity:1;stroke:none;stroke-width:3.51053929"
         xml:space="preserve"><tspan
           style="stroke-width:3.51053929"
           y="280.85693"
           x="270.40433"
           id="tspan4562"></tspan></text>
      <text
         id="text4568"
         y="228.55486"
         x="256.32208"
         style="font-style:normal;font-variant:normal;font-weight:normal;font-stretch:normal;font-size:149.61990356px;line-height:1.25;font-family:monospace;-inkscape-font-specification:monospace;letter-spacing:0px;word-spacing:0px;fill:#000000;fill-opacity:1;stroke:none;stroke-width:3.74049783"
         xml:space="preserve"><tspan
           style="font-size:159.59455872px;fill:#591270;fill-opacity:1;stroke-width:3.74049783"
           y="228.55486"
           x="256.32208"
           id="tspan4566">ex</tspan></text>
    </g>
    <g
       id="Layer_1"
       transform="matrix(0.06743866,0,0,0.06743866,-3.7382272,264.44065)" />
  </g>
</svg>
